# xmcd CD database file
#
# Track frame offsets:
#	182
#	13870
#	28327
#	42947
#	59310
#	70322
#	79937
#	94245
#	105915
#	117247
#
# Disc length: 1790 seconds
#
# Revision: 2
# Processed by: cddbd v1.4b41PL1 Copyright (c) Steve Scherf et al.
# Submitted via: CDValet v3.31 - Copyright (c) 1997 Greg Leichner
#
DISCID=8206fc0a
DTITLE=Frank Taylor - Nashville Express
DYEAR=1900
DGENRE=
TTITLE0=For Your Love
TTITLE1=Be My Baby
TTITLE2=Too Much Of Not Enough Of You
TTITLE3=To Reach The Women In You
TTITLE4=Are You Lonesome Tonight
TTITLE5=Helpless
TTITLE6=Unwritten Country Love Songs
TTITLE7=I Don't Want To See You Cry
TTITLE8=Pop'n Tops
TTITLE9=Spanish Eyes
EXTD=
EXTT0=
EXTT1=
EXTT2=
EXTT3=
EXTT4=
EXTT5=
EXTT6=
EXTT7=
EXTT8=
EXTT9=
PLAYORDER=
